<svg viewBox="0 0 17.13 23.617" xmlns="http://www.w3.org/2000/svg"><path d="m10.313 9.806c.185.227.419.182.617.246.326.105.659.208.6.671-.026.2.112.326.265.428a1.615 1.615 0 0 0 .32.189 3 3 0 0 1 2.126 2.772.7.7 0 0 0 .384.646.558.558 0 0 1 .249.6.465.465 0 0 0 .377.55 1.628 1.628 0 0 1 1.007 1.029 3.44 3.44 0 0 0 .69 1.125c.112.109.249.237.121.412s-.313.141-.486.08a1.509 1.509 0 0 1 -.227-.134c-.147-.086-.2-.39-.384-.3-.233.112-.032.352-.006.524.109.681.243 1.362.371 2.04.042.214.035.406-.224.454-.24.045-.358-.1-.409-.316-.131-.569-.275-1.138-.39-1.71-.058-.278-.144-.355-.457-.326a6.024 6.024 0 0 1 -1.2.019c-.777-.09-.876-.339-1.013-1.128-.121-.7.115-1.435-.2-2.142-.121-.269.2-.483.441-.588.387-.166.371-.4.3-.764a2.428 2.428 0 0 0 -1.56-1.867c-.4-.173-.559-.048-.636.32a3.155 3.155 0 0 0 .2 1.976c.112.246.23.476.07.751-.08.134 0 .275.045.409a30.506 30.506 0 0 0 2.391 5.9 5.755 5.755 0 0 1 .32 1.122c.054.176-.058.281-.192.4a2.287 2.287 0 0 1 -1.036.377c-.166.042-.38.086-.508-.058-.153-.169.058-.278.141-.4s.019-.24-.01-.355a18.627 18.627 0 0 0 -2.589-5.687c-.345-.527-.489-.518-.972-.112a8.837 8.837 0 0 0 -1.432 1.5 1.712 1.712 0 0 0 -.291 1.055 31.505 31.505 0 0 1 -.105 3.3c-.022.169.026.377-.2.448-.185.058-.23-.093-.3-.221-.105-.185-.24-.093-.355 0-.566.425-1.234.185-1.851.281a.12.12 0 0 1 -.141-.121.246.246 0 0 1 .105-.166 1.212 1.212 0 0 1 .39-.16c.671-.1.885-.524.9-1.151.022-.94.105-1.88.115-2.82a2.18 2.18 0 0 1 .438-1.333c.435-.582.844-1.186 1.272-1.774.192-.262.233-.467-.128-.617a1.8 1.8 0 0 1 -.4-.259c-.4-.313-.742-.547-.5-1.237a8.345 8.345 0 0 0 .2-2.209c.013-.185-.077-.262-.256-.237a.642.642 0 0 0 -.157.026c-1.339.48-1.381.093-1.921-1.023a5.111 5.111 0 0 1 -.2-.5.616.616 0 0 0 -.735-.511.7.7 0 0 1 -.815-.652 1.829 1.829 0 0 0 -.844-1.269 5.3 5.3 0 0 1 -1.538-2.071c-.15-.278-.182-.6.265-.7a.251.251 0 0 0 .227-.256c-.013-.368.211-.508.527-.534a.263.263 0 0 0 .281-.233.442.442 0 0 1 .64-.355c.169.061.249.01.345-.131.313-.47.591-.473.914-.029a1.812 1.812 0 0 1 .16.275c.157.332.294.275.47 0a8.526 8.526 0 0 1 1.822-2 6.019 6.019 0 0 1 9.249 2.346c.889 1.988 1.055 1.787-.438 3.7a5.97 5.97 0 0 1 -3.817 2.334 1.544 1.544 0 0 0 -.259.067 1.41 1.41 0 0 0 -.173.084zm-4.677.448 1.746-.454c.118-.032.265-.064.262-.211s-.16-.176-.272-.217a7.126 7.126 0 0 1 -1.71-.956c-.157-.112-.31-.272-.511-.077-.16.157-.377.278-.3.569a5.836 5.836 0 0 0 .4 1.1.431.431 0 0 0 .385.246z" fill="#6acee8" transform="translate(.004 .002)"/></svg>