<?xml version="1.0" encoding="utf-8"?>
<!-- Generator: Adobe Illustrator 23.0.0, SVG Export Plug-In . SVG Version: 6.00 Build 0)  -->
<svg version="1.1" id="レイヤー_1" xmlns="http://www.w3.org/2000/svg" xmlns:xlink="http://www.w3.org/1999/xlink" x="0px"
	 y="0px" viewBox="0 0 79.5 45" style="enable-background:new 0 0 79.5 45;" xml:space="preserve">
<style type="text/css">
	.st0{fill:#FFFFFF;}
	.st1{fill:#707070;}
</style>
<g>
	<path class="st0" d="M-146.3,80.1c-0.9,0-1.7-0.8-1.7-1.8V42.1c0-1,0.9-1.9,1.9-1.9H0.5c1.7,0,3-1.3,3-3C3.5,17.1,19.9,0.7,40,0.7
		s36.5,16.4,36.5,36.5c0,1.7,1.3,3,2.9,3H225c1,0,1.9,0.9,1.9,1.9v36.1c0,1-0.9,1.9-1.9,1.9h-371.1L-146.3,80.1z"/>
	<path class="st1" d="M40,1.2c19.9,0,36,16.1,36,36c0,1.9,1.5,3.5,3.4,3.5H225c0.7,0,1.4,0.7,1.4,1.4v36.1c0,0.7-0.7,1.4-1.4,1.4
		h-371.1h0l0,0c0,0-0.1,0-0.1,0c-0.7,0-1.2-0.6-1.2-1.3V42.1c0-0.7,0.7-1.4,1.4-1.4H0.5c2,0,3.5-1.5,3.5-3.5C4,17.3,20.1,1.2,40,1.2
		 M40,0.2c-20.4,0-37,16.6-37,37c0,1.4-1.1,2.5-2.5,2.5h-146.6c-1.3,0-2.4,1.1-2.4,2.4v36.2c0,1.2,1,2.3,2.2,2.3c0.1,0,0.1,0,0.2,0
		H225c1.3,0,2.4-1.1,2.4-2.4V42.1c0-1.3-1.1-2.4-2.4-2.4H79.4c-1.3,0-2.4-1.1-2.4-2.5C77,16.8,60.4,0.2,40,0.2L40,0.2z"/>
</g>
</svg>
