<svg viewBox="0 0 27 22.345" xmlns="http://www.w3.org/2000/svg"><g fill="#707070" transform="translate(0 -44.326)"><path d="m174.058 198.494a4.976 4.976 0 0 0 -3.549 1.483 5.11 5.11 0 0 0 0 7.181 4.985 4.985 0 0 0 7.1 0 5.11 5.11 0 0 0 0-7.181 4.976 4.976 0 0 0 -3.551-1.483zm0 8.2a3.129 3.129 0 1 1 3.1-3.129 3.114 3.114 0 0 1 -3.1 3.135z" transform="translate(-160.558 -146.576)"/><path d="m26.2 49.143a2.736 2.736 0 0 0 -1.945-.814h-2.978a.62.62 0 0 1 -.566-.374l-.891-2a2.747 2.747 0 0 0 -2.508-1.633h-7.624a2.75 2.75 0 0 0 -2.509 1.633l-.89 2a.62.62 0 0 1 -.566.374h-2.975a2.743 2.743 0 0 0 -1.948.814 2.773 2.773 0 0 0 -.8 1.952v12.811a2.772 2.772 0 0 0 .8 1.952 2.738 2.738 0 0 0 1.947.813h21.5a2.731 2.731 0 0 0 1.945-.813 2.765 2.765 0 0 0 .8-1.952v-12.811a2.764 2.764 0 0 0 -.792-1.952zm-8.3 12.39a6.18 6.18 0 0 1 -8.8 0 6.311 6.311 0 0 1 0-8.867 6.184 6.184 0 0 1 8.8 0 6.311 6.311 0 0 1 0 8.867zm6.46-8.223h-1.886v-1.89h1.888z"/></g></svg>