<svg viewBox="0 0 30.762 25" xmlns="http://www.w3.org/2000/svg"><path d="m30.762 2.959a12.616 12.616 0 0 1 -3.625.994 6.331 6.331 0 0 0 2.776-3.492 12.634 12.634 0 0 1 -4.013 1.532 6.317 6.317 0 0 0 -10.75 5.756 17.917 17.917 0 0 1 -13.008-6.594 6.318 6.318 0 0 0 1.953 8.426 6.286 6.286 0 0 1 -2.859-.789v.079a6.315 6.315 0 0 0 5.064 6.189 6.323 6.323 0 0 1 -2.85.108 6.317 6.317 0 0 0 5.9 4.383 12.662 12.662 0 0 1 -7.838 2.7 12.839 12.839 0 0 1 -1.512-.087 17.864 17.864 0 0 0 9.675 2.836c11.609 0 17.957-9.617 17.957-17.957q0-.41-.018-.816a12.824 12.824 0 0 0 3.149-3.267" fill="#00aced"/></svg>