<svg viewBox="0 0 25 25" xmlns="http://www.w3.org/2000/svg"><path d="m28.208 29.588a1.38 1.38 0 0 0 1.38-1.38v-22.24a1.38 1.38 0 0 0 -1.38-1.38h-22.24a1.38 1.38 0 0 0 -1.38 1.38v22.24a1.38 1.38 0 0 0 1.38 1.38z" fill="#3c5a99" transform="translate(-4.588 -4.588)"/><path d="m116.616 67.12v-10.769h3.615l.541-4.2h-4.156v-2.676c0-1.215.337-2.043 2.08-2.043h2.222v-3.755a29.707 29.707 0 0 0 -3.238-.165c-3.2 0-5.4 1.956-5.4 5.548v3.1h-3.624v4.2h3.624v10.76z" fill="#fff" transform="translate(-99.457 -42.12)"/></svg>