<svg enable-background="new 0 0 293.57 298.06" viewBox="0 0 293.57 298.06" xmlns="http://www.w3.org/2000/svg"><path d="m138.35 245.46c-.31.85-1.32 1.56-2.23 1.56h-57.81c-.91 0-1.4-.7-1.09-1.56l10.96-30.1c.31-.86 1.31-1.56 2.22-1.56h11.04c.91 0 2.29-.4 3.06-.89l2.99-1.9c.77-.49 2.15-.89 3.06-.89h8.07c.91 0 1.03.4.26.9l-2.92 1.88c-.77.49-.65.9.26.9h32.07c.91 0 1.4.7 1.09 1.56zm-8.01-19.09c.91 0 1.91-.7 2.23-1.56l.62-1.69c.31-.86-.18-1.56-1.09-1.56h-31.46c-.91 0-1.91.7-2.23 1.56l-.62 1.69c-.31.86.18 1.56 1.09 1.56zm-4.62 12.7c.91 0 1.91-.7 2.22-1.56l.57-1.58c.31-.86-.18-1.56-1.09-1.56h-31.44c-.91 0-1.91.7-2.22 1.56l-.57 1.58c-.31.86.18 1.56 1.09 1.56z"/><path d="m211.97 245.51c.4.82-.02 1.49-.93 1.49h-45.92c-.91 0-1.36-.68-1-1.52l1.77-4.11c.36-.84 1.25-1.97 1.98-2.53l7.38-5.58c.73-.55.58-1-.34-1h-5.13c-.91 0-1.4-.7-1.09-1.56l1.44-3.99c.31-.86 1.31-1.56 2.22-1.56h10.85c.91 0 1.91-.7 2.23-1.56l.26-.72c.31-.86-.18-1.56-1.09-1.56h-11.26c-.91 0-1.4-.7-1.09-1.56l1.46-3.99c.31-.86 1.31-1.56 2.22-1.56h11.24c.91 0 1.91-.7 2.22-1.56l.33-.92c.31-.86 1.31-1.56 2.22-1.56h10.25c.91 0 1.41.7 1.1 1.56l-.33.92c-.31.86.18 1.56 1.09 1.56h12.07c.91 0 1.4.7 1.09 1.56l-1.45 3.99c-.31.86-1.31 1.56-2.22 1.56h-12.07c-.91 0-1.91.7-2.23 1.56l-.26.72c-.31.86.18 1.56 1.09 1.56h12.45c.91 0 1.4.7 1.09 1.56l-1.45 3.99c-.31.86-1.31 1.56-2.22 1.56h-17.27c-.91 0-2.25.45-2.98 1l-7.37 5.58c-.73.55-.58 1 .34 1h12.18c.91 0 1.36-.69 1-1.53l-.66-1.52c-.36-.84.09-1.53 1-1.53h9.17c.91 0 1.98.67 2.38 1.5z"/><path d="m163.45 234.46c.91 0 1.23.61.71 1.36l-7.3 10.5c-.52.75-1.69 1.36-2.6 1.36h-7.36c-.91 0-1.24-.62-.72-1.37l7.18-10.48c.52-.75 1.68-1.37 2.6-1.37z"/><path d="m159.49 213.12c-.91 0-1.91.7-2.23 1.56l-1.47 4.03c-.31.86.18 1.56 1.09 1.56l10.82-.03c.91 0 1.91-.71 2.23-1.56l1.46-4c.31-.86-.18-1.56-1.09-1.56z"/><path d="m156.2 222.25c-.91 0-1.92.7-2.23 1.56l-1.47 4.03c-.31.86.18 1.56 1.09 1.55l10.82-.03c.91 0 1.91-.71 2.23-1.56l1.46-4c.31-.86-.18-1.56-1.09-1.56h-10.81z"/><path d="m267.85 247c-.91 0-2.09-.61-2.62-1.35l-11.44-16.13c-.53-.74-1.48-.82-2.11-.16l-15.86 16.45c-.63.66-1.9 1.19-2.81 1.19h-14.76c-.91 0-1.14-.54-.51-1.2l32.97-34.44c.63-.66 1.89-1.2 2.8-1.2h15.1c.91 0 1.13.53.49 1.17l-11.16 11.15c-.65.65-.43 1.17.49 1.17h4.99c.91 0 2.11.6 2.65 1.33l15.52 20.69c.55.73.25 1.33-.66 1.33z"/><path d="m80.52 214.86c-.31.86-1.31 1.56-2.23 1.56h-22.15c-.91 0-2.29.39-3.06.87l-3.5 2.16c-.78.48-.66.87.25.87h27.06c.91 0 1.4.7 1.09 1.56l-8.58 23.58c-.31.85-1.31 1.56-2.22 1.56h-58.09c-.91 0-1.4-.7-1.09-1.56l8.59-23.58c.31-.86 1.31-1.56 2.22-1.56h16.72c.91 0 2.29-.39 3.07-.87l3.5-2.16c.78-.48.67-.87-.25-.87h-21.63c-.91 0-1.4-.7-1.09-1.56l1.16-3.19c.31-.86 1.31-1.56 2.23-1.56h58.08c.91 0 1.4.7 1.09 1.56zm-32.43 13.11c.91 0 1.81-.43 2.01-.96.19-.53-.4-.96-1.31-.96h-6.32c-.91 0-1.82.43-2.01.96-.2.53.39.96 1.3.96zm-2.49 6.87c.91 0 1.82-.45 2.01-.99.2-.54-.39-.99-1.3-.99h-6.33c-.91 0-1.82.45-2.02.99-.2.55.38.99 1.3.99zm-2.5 6.84c.91 0 1.82-.44 2.01-.99.2-.54-.39-.99-1.3-.99h-6.33c-.91 0-1.82.44-2.01.99-.2.54.39.99 1.3.99zm12.07 0c.91 0 1.91-.7 2.22-1.56l4.55-12.51c.31-.86-.18-1.56-1.09-1.56h-.42c-.91 0-1.91.7-2.22 1.56l-4.55 12.51c-.31.86.18 1.56 1.09 1.56zm-29.51 0c.91 0 1.91-.7 2.22-1.56l4.55-12.51c.31-.86-.18-1.56-1.09-1.56h-.44c-.91 0-1.91.7-2.22 1.56l-4.55 12.51c-.31.86.18 1.56 1.09 1.56z"/><path d="m164.09 277.22c-.24-1.33.67-2.42 2.02-2.42h3.91c1.35 0 2.66 1.09 2.9 2.42l1.15 6.37c.24 1.33-.67 2.42-2.02 2.42h-3.91c-1.35 0-2.66-1.09-2.89-2.42z"/><path d="m194.15 275.79c1.13 0 1.62.81 1.09 1.81l-9.91 18.65c-.53 1-1.88 1.81-3.01 1.81h-9.7c-1.13 0-1.62-.81-1.09-1.81l9.92-18.66c.53-.99 1.88-1.81 3.01-1.81h9.69z"/><path d="m152.94 277.22c-.24-1.33.67-2.42 2.02-2.42h3.84c1.35 0 2.65 1.09 2.89 2.42l1.15 6.37c.24 1.33-.67 2.42-2.02 2.42h-3.84c-1.35 0-2.66-1.09-2.89-2.42z"/><path d="m26.11 261.13c.39-1.06-.21-1.92-1.34-1.92h-8.26c-1.13 0-2.37.86-2.76 1.92l-.65 1.76c-.39 1.06-1.63 1.92-2.76 1.92h-5.2c-1.13 0-2.36.87-2.74 1.93l-2.28 6.34c-.38 1.06.23 1.93 1.35 1.93h5.25c1.13 0 1.73.87 1.35 1.92l-6.98 19.19c-.39 1.06.22 1.92 1.35 1.92h8.26c1.13 0 2.36-.87 2.75-1.92l6.99-19.19c.39-1.06 1.62-1.92 2.75-1.92h21.82c1.13 0 1.73.86 1.34 1.92l-7.05 19.19c-.39 1.06.22 1.92 1.34 1.92h12.89c1.13 0 2.36-.87 2.75-1.92l10.68-29.38c.39-1.06-.22-1.93-1.35-1.93h-38.82c-1.13 0-1.73-.86-1.34-1.92z"/><path d="m224.83 274.06c.53-1 1.88-1.81 3.01-1.81h23.25c1.13 0 1.61.81 1.08 1.81l-11.84 22.18c-.53.99-.04 1.81 1.08 1.81h13.54c1.12 0 2.48-.81 3.01-1.81l17.26-32.42c.53-.99.04-1.81-1.08-1.81h-54.9c-1.12 0-2.48.81-3 1.81l-10.54 19.87c-.53 1-.04 1.81 1.09 1.81h9.95c1.12 0 2.48-.81 3-1.81z"/><path d="m103.86 264.81c-1.13 0-2.34-.87-2.71-1.94l-.59-1.73c-.36-1.07-1.58-1.94-2.71-1.94h-12.58c-1.13 0-1.75.87-1.39 1.94l.58 1.73c.36 1.07-.26 1.94-1.39 1.94h-5.2c-1.13 0-1.74.87-1.36 1.93l2.25 6.34c.38 1.06 1.61 1.93 2.73 1.93h5.2c1.13 0 2.37.86 2.76 1.92l7.08 19.2c.39 1.05 1.63 1.92 2.76 1.92h12.59c1.13 0 1.73-.86 1.34-1.92l-7.07-19.2c-.39-1.06.21-1.92 1.34-1.92h17.62c1.13 0 1.61.81 1.09 1.81l-4.49 8.45c-.53 1-.04 1.81 1.09 1.81h9.64c1.13 0 2.48-.81 3.01-1.81l9.91-18.64c.53-.99.04-1.81-1.09-1.81z"/><path d="m256.62 0c-21.02 35.78-57.74 51.96-108.63 51.96s-87.61-16.18-108.63-51.96c-20.97 13.1-36.94 36.19-36.94 64.31 0 28.75 17.49 53.71 40.29 66.29 21.68 12.12 56.66 19.22 105.28 19.22s83.59-7.09 105.28-19.22c22.81-12.58 40.29-37.54 40.29-66.29.01-28.12-15.96-51.21-36.94-64.31z"/><path d="m75.21 126.34 33.28-91.33c1.06-3.32-.6-5.43-3.27-5.43-3.32 0-5.01 1.59-6.19 4.84l-33.49 91.92c-2.26 6.2-8.58 11.95-10.84 18.14l-8.81 24.19c-1.21 3.34.51 6.05 3.84 6.05h6.05c4.36 0 6.54-1.51 8.25-6.05l8.19-22.48c2.14-5.89.21-11.68 2.99-19.85z"/><path d="m118.76 126.34 33.27-91.33c1.06-3.32-.6-5.43-3.27-5.43-3.31 0-5.01 1.59-6.18 4.84l-33.49 91.92c-2.26 6.2-8.58 11.95-10.84 18.14l-8.82 24.19c-1.21 3.34.51 6.05 3.85 6.05h6.05c4.35 0 6.54-1.51 8.25-6.05l8.19-22.48c2.14-5.89.2-11.68 2.99-19.85z"/><path d="m162.3 126.34 33.27-91.33c1.06-3.32-.61-5.43-3.28-5.43-3.3 0-5.01 1.59-6.18 4.84l-33.49 91.92c-2.26 6.2-8.59 11.95-10.84 18.14l-8.81 24.19c-1.21 3.34.51 6.05 3.85 6.05h6.04c4.36 0 6.55-1.51 8.25-6.05l8.19-22.48c2.15-5.89.21-11.68 3-19.85z"/></svg>